# xmcd CD database file
#
# Track frame offsets:
#	150
#	20262
#	35536
#	58639
#	73949
#	91422
#	109130
#	129066
#	154937
#	173245
#	195794
#	212297
#	229881
#	248464
#	278105
#
# Disc length: 3961 seconds
#
# Revision: 0
# Processed by: cddbd v1.5.2PL0 Copyright (c) Steve Scherf et al.
# Submitted via: CDex 1.70beta2
#
DISCID=be0f770f
DTITLE=La 33 - Gózalo - Salsa Con Sabor
DYEAR=2007
DGENRE=Salsa
TTITLE0=Descarga 33
TTITLE1=Bye Bye
TTITLE2=Quiéreme Na'ma
TTITLE3=Plinio Guzman
TTITLE4=La Fea
TTITLE5=El Robo
TTITLE6=Te Le Voy A Devolver
TTITLE7=Gózalo
TTITLE8=Bomba Colombiana
TTITLE9=Porque Yo
TTITLE10=La Rumba Buena
TTITLE11=El Turpial
TTITLE12=La Tormenta (Sand Storm)
TTITLE13=Arrullo Y Son
TTITLE14=My Favorite Things
EXTD=YEAR: 2007
EXTT0=
EXTT1=
EXTT2=
EXTT3=
EXTT4=
EXTT5=
EXTT6=
EXTT7=
EXTT8=
EXTT9=
EXTT10=
EXTT11=
EXTT12=
EXTT13=
EXTT14=
PLAYORDER=
